<?xml version="1.0" encoding="UTF-8" standalone="no"?>
<!DOCTYPE svg PUBLIC "-//W3C//DTD SVG 1.1//EN" "http://www.w3.org/Graphics/SVG/1.1/DTD/svg11.dtd">
<svg width="100%" height="100%" viewBox="0 0 1000 1000" version="1.1" xmlns="http://www.w3.org/2000/svg" xmlns:xlink="http://www.w3.org/1999/xlink" xml:space="preserve" xmlns:serif="http://www.serif.com/" style="fill-rule:evenodd;clip-rule:evenodd;stroke-linejoin:round;stroke-miterlimit:2;">
    <g transform="matrix(1.09129,0,0,1.09129,-73.0907,-63.106)">
        <path d="M525.15,57.827C778.024,57.827 983.325,263.128 983.325,516.001C983.325,768.874 778.024,974.175 525.15,974.175C272.277,974.175 66.976,768.874 66.976,516.001C66.976,263.128 272.277,57.827 525.15,57.827ZM525.15,69.281C278.599,69.281 78.431,269.45 78.431,516.001C78.431,762.552 278.599,962.721 525.15,962.721C771.702,962.721 971.87,762.552 971.87,516.001C971.87,269.45 771.702,69.281 525.15,69.281Z" style="fill:white;"/>
    </g>
    <g transform="matrix(0.867214,0,0,0.867214,30.5549,66.56)">
        <g transform="matrix(936.694,0,0,936.694,181.638,852.005)">
            <path d="M0.008,-0.752L0.248,-0.752L0.248,-0L0.136,-0L0.136,-0.12L0.12,-0.12L0.12,-0L0.008,-0L0.008,-0.752ZM0.136,-0.222L0.136,-0.651L0.12,-0.651L0.12,-0.222L0.136,-0.222Z" style="fill:white;fill-rule:nonzero;"/>
        </g>
        <g transform="matrix(936.694,0,0,936.694,421.429,852.005)">
            <path d="M0.008,-0.752L0.248,-0.752L0.248,-0.264C0.248,-0.245 0.244,-0.228 0.237,-0.213C0.23,-0.197 0.22,-0.185 0.207,-0.176C0.194,-0.167 0.18,-0.163 0.165,-0.163L0.12,-0.163L0.12,-0.182L0.248,-0.182L0.248,-0L0.136,-0L0.136,-0.12L0.12,-0.12L0.12,-0L0.008,-0L0.008,-0.752ZM0.129,-0.222C0.13,-0.222 0.132,-0.222 0.133,-0.223C0.134,-0.223 0.135,-0.225 0.135,-0.226C0.136,-0.228 0.136,-0.23 0.136,-0.233L0.136,-0.651L0.12,-0.651L0.12,-0.222L0.129,-0.222Z" style="fill:white;fill-rule:nonzero;"/>
        </g>
        <g transform="matrix(936.694,0,0,936.694,661.22,852.005)">
            <path d="M0.008,-0.752L0.248,-0.752L0.248,-0L0.136,-0L0.136,-0.12L0.12,-0.12L0.12,-0L0.008,-0L0.008,-0.752ZM0.136,-0.222L0.136,-0.651L0.12,-0.651L0.12,-0.222L0.136,-0.222Z" style="fill:white;fill-rule:nonzero;"/>
        </g>
        <g transform="matrix(936.694,0,0,936.694,901.01,852.005)">
        </g>
    </g>
</svg>
