<?xml version="1.0" encoding="UTF-8" standalone="no"?>
<!DOCTYPE svg PUBLIC "-//W3C//DTD SVG 1.1//EN" "http://www.w3.org/Graphics/SVG/1.1/DTD/svg11.dtd">
<svg width="100%" height="100%" viewBox="0 0 2550 1415" version="1.1" xmlns="http://www.w3.org/2000/svg" xmlns:xlink="http://www.w3.org/1999/xlink" xml:space="preserve" xmlns:serif="http://www.serif.com/" style="fill-rule:evenodd;clip-rule:evenodd;stroke-linejoin:round;stroke-miterlimit:2;">
    <g transform="matrix(1.48994,0,0,1.48994,-174.703,-675.227)">
        <g>
            <clipPath id="_clip1">
                <rect x="117.255" y="453.168" width="1711.48" height="949.39"/>
            </clipPath>
            <g clip-path="url(#_clip1)">
                <g transform="matrix(1,0,0,1,106.914,1402.56)">
                    <path d="M51.706,0L51.706,-40.072L31.024,-40.072L31.024,0L10.341,0L10.341,-969.495L72.389,-969.495L72.389,0L51.706,0ZM31.024,-950.105L31.024,-59.462L51.706,-59.462L51.706,-950.105L31.024,-950.105Z" style="fill:white;fill-rule:nonzero;"/>
                    <path d="M135.729,-40.072L113.754,-40.072L113.754,0L93.072,0L93.072,-969.495L155.119,-969.495L155.119,-69.804C155.119,-66.357 154.473,-63.125 153.18,-60.109C151.888,-57.092 149.518,-54.723 146.071,-52.999L156.412,-52.999L156.412,0L135.729,0L135.729,-40.072ZM113.754,-59.462L131.851,-59.462C132.713,-59.462 133.359,-59.678 133.79,-60.109C134.221,-60.54 134.437,-61.186 134.437,-62.048L134.437,-950.105L113.754,-950.105L113.754,-59.462Z" style="fill:white;fill-rule:nonzero;"/>
                    <path d="M177.094,0L177.094,-969.495L280.507,-969.495L280.507,0L259.825,0L259.825,-950.105L239.142,-950.105L239.142,0L218.46,0L218.46,-950.105L197.777,-950.105L197.777,0L177.094,0Z" style="fill:white;fill-rule:nonzero;"/>
                    <path d="M363.237,-19.39L363.237,0L301.19,0L301.19,-969.495L363.237,-969.495L363.237,-80.145L342.555,-80.145L342.555,-950.105L321.872,-950.105L321.872,-59.462L363.237,-59.462L363.237,-40.072L321.872,-40.072L321.872,-19.39L363.237,-19.39Z" style="fill:white;fill-rule:nonzero;"/>
                    <path d="M383.92,0L383.92,-969.495L445.968,-969.495L445.968,0L425.285,0L425.285,-950.105L404.603,-950.105L404.603,0L383.92,0Z" style="fill:white;fill-rule:nonzero;"/>
                    <rect x="466.65" y="-969.495" width="20.683" height="969.495" style="fill:white;fill-rule:nonzero;"/>
                    <path d="M549.381,0L549.381,-40.072L528.698,-40.072L528.698,0L508.015,0L508.015,-969.495L570.063,-969.495L570.063,0L549.381,0ZM528.698,-950.105L528.698,-59.462L549.381,-59.462L549.381,-950.105L528.698,-950.105Z" style="fill:white;fill-rule:nonzero;"/>
                    <path d="M590.746,0L590.746,-969.495L652.793,-969.495L652.793,0L632.111,0L632.111,-950.105L611.428,-950.105L611.428,0L590.746,0Z" style="fill:white;fill-rule:nonzero;"/>
                    <path d="M736.816,-40.072L714.841,-40.072L714.841,0L694.158,0L694.158,-969.495L756.206,-969.495L756.206,-69.804C756.206,-66.357 755.56,-63.125 754.267,-60.109C752.974,-57.092 750.605,-54.723 747.157,-52.999L757.499,-52.999L757.499,0L736.816,0L736.816,-40.072ZM714.841,-59.462L732.938,-59.462C733.8,-59.462 734.446,-59.678 734.877,-60.109C735.308,-60.54 735.524,-61.186 735.524,-62.048L735.524,-950.105L714.841,-950.105L714.841,-59.462Z" style="fill:white;fill-rule:nonzero;"/>
                    <path d="M840.229,-19.39L840.229,0L778.181,0L778.181,-969.495L840.229,-969.495L840.229,-80.145L819.546,-80.145L819.546,-950.105L798.864,-950.105L798.864,-59.462L840.229,-59.462L840.229,-40.072L798.864,-40.072L798.864,-19.39L840.229,-19.39Z" style="fill:white;fill-rule:nonzero;"/>
                    <path d="M859.619,0L859.619,-947.52C859.619,-954.414 861.342,-959.8 864.79,-963.678C868.237,-967.556 873.407,-969.495 880.301,-969.495L921.667,-969.495L921.667,-100.827L900.984,-100.827L900.984,-950.105L882.887,-950.105C882.025,-950.105 881.379,-949.89 880.948,-949.459C880.517,-949.028 880.301,-948.382 880.301,-947.52L880.301,-19.39L898.399,-19.39C899.26,-19.39 899.907,-19.605 900.338,-20.036C900.769,-20.467 900.984,-21.113 900.984,-21.975L900.984,-80.145L921.667,-80.145L921.667,-21.975C921.667,-15.081 919.943,-9.695 916.496,-5.817C913.049,-1.939 907.878,0 900.984,0L859.619,0Z" style="fill:white;fill-rule:nonzero;"/>
                    <path d="M939.764,0L939.764,-947.52C939.764,-954.414 941.487,-959.8 944.934,-963.678C948.382,-967.556 953.552,-969.495 960.446,-969.495L1001.81,-969.495L1001.81,-21.975C1001.81,-15.081 1000.09,-9.695 996.641,-5.817C993.194,-1.939 988.023,0 981.129,0L939.764,0ZM960.446,-19.39L978.544,-19.39C979.405,-19.39 980.052,-19.605 980.483,-20.036C980.913,-20.467 981.129,-21.113 981.129,-21.975L981.129,-950.105L963.032,-950.105C962.17,-950.105 961.524,-949.89 961.093,-949.459C960.662,-949.028 960.446,-948.382 960.446,-947.52L960.446,-19.39Z" style="fill:white;fill-rule:nonzero;"/>
                    <path d="M1063.86,-40.072L1041.88,-40.072L1041.88,0L1021.2,0L1021.2,-969.495L1083.25,-969.495L1083.25,-69.804C1083.25,-66.357 1082.6,-63.125 1081.31,-60.109C1080.02,-57.092 1077.65,-54.723 1074.2,-52.999L1084.54,-52.999L1084.54,0L1063.86,0L1063.86,-40.072ZM1041.88,-59.462L1059.98,-59.462C1060.84,-59.462 1061.49,-59.678 1061.92,-60.109C1062.35,-60.54 1062.57,-61.186 1062.57,-62.048L1062.57,-950.105L1041.88,-950.105L1041.88,-59.462Z" style="fill:white;fill-rule:nonzero;"/>
                    <path d="M1105.22,0L1105.22,-969.495L1167.27,-969.495L1167.27,-21.975C1167.27,-15.943 1165.12,-10.772 1160.81,-6.463C1156.5,-2.154 1151.33,0 1145.3,0L1105.22,0ZM1146.59,-950.105L1125.91,-950.105L1125.91,-19.39L1145.3,-19.39C1146.16,-19.39 1146.59,-19.605 1146.59,-20.036L1146.59,-950.105Z" style="fill:white;fill-rule:nonzero;"/>
                    <path d="M1248.71,0L1248.71,-40.072L1228.03,-40.072L1228.03,0L1207.34,0L1207.34,-969.495L1269.39,-969.495L1269.39,0L1248.71,0ZM1228.03,-950.105L1228.03,-59.462L1248.71,-59.462L1248.71,-950.105L1228.03,-950.105Z" style="fill:white;fill-rule:nonzero;"/>
                    <path d="M1332.73,-40.072L1310.76,-40.072L1310.76,0L1290.08,0L1290.08,-969.495L1352.12,-969.495L1352.12,-69.804C1352.12,-66.357 1351.48,-63.125 1350.18,-60.109C1348.89,-57.092 1346.52,-54.723 1343.07,-52.999L1353.41,-52.999L1353.41,0L1332.73,0L1332.73,-40.072ZM1310.76,-59.462L1328.85,-59.462C1329.72,-59.462 1330.36,-59.678 1330.79,-60.109C1331.22,-60.54 1331.44,-61.186 1331.44,-62.048L1331.44,-950.105L1310.76,-950.105L1310.76,-59.462Z" style="fill:white;fill-rule:nonzero;"/>
                    <path d="M1372.81,0L1372.81,-947.52C1372.81,-954.414 1374.53,-959.8 1377.98,-963.678C1381.42,-967.556 1386.59,-969.495 1393.49,-969.495L1434.85,-969.495L1434.85,-100.827L1414.17,-100.827L1414.17,-950.105L1396.07,-950.105C1395.21,-950.105 1394.57,-949.89 1394.13,-949.459C1393.7,-949.028 1393.49,-948.382 1393.49,-947.52L1393.49,-19.39L1411.59,-19.39C1412.45,-19.39 1413.09,-19.605 1413.52,-20.036C1413.95,-20.467 1414.17,-21.113 1414.17,-21.975L1414.17,-80.145L1434.85,-80.145L1434.85,-21.975C1434.85,-15.081 1433.13,-9.695 1429.68,-5.817C1426.24,-1.939 1421.06,0 1414.17,0L1372.81,0Z" style="fill:white;fill-rule:nonzero;"/>
                    <path d="M1495.61,0L1495.61,-40.072L1474.92,-40.072L1474.92,0L1454.24,0L1454.24,-969.495L1474.92,-969.495L1474.92,-59.462L1495.61,-59.462L1495.61,-969.495L1516.29,-969.495L1516.29,0L1495.61,0Z" style="fill:white;fill-rule:nonzero;"/>
                    <rect x="1536.97" y="-969.495" width="20.683" height="969.495" style="fill:white;fill-rule:nonzero;"/>
                    <path d="M1578.34,0L1578.34,-969.495L1599.02,-969.495L1599.02,-19.39L1617.12,-19.39C1617.98,-19.39 1618.63,-19.605 1619.06,-20.036C1619.49,-20.467 1619.7,-21.113 1619.7,-21.975L1619.7,-969.495L1640.39,-969.495L1640.39,-21.975C1640.39,-15.081 1638.66,-9.695 1635.22,-5.817C1631.77,-1.939 1626.17,0 1618.41,0L1578.34,0Z" style="fill:white;fill-rule:nonzero;"/>
                    <path d="M1721.82,-19.39L1721.82,0L1659.78,0L1659.78,-969.495L1721.82,-969.495L1721.82,-80.145L1701.14,-80.145L1701.14,-950.105L1680.46,-950.105L1680.46,-59.462L1721.82,-59.462L1721.82,-40.072L1680.46,-40.072L1680.46,-19.39L1721.82,-19.39Z" style="fill:white;fill-rule:nonzero;"/>
                </g>
            </g>
        </g>
    </g>
</svg>
