<svg width="40" height="40" viewBox="0 0 40 40" fill="none" xmlns="http://www.w3.org/2000/svg">
<path d="M3.56987 1.66666H35.1469C35.1867 1.66601 35.2259 1.67554 35.2607 1.69434C35.2956 1.71313 35.3252 1.74057 35.3465 1.77403C35.3679 1.80749 35.3803 1.84586 35.3826 1.88548C35.3849 1.92509 35.377 1.96463 35.3596 2.00032C32.6374 7.49745 28.5341 12.1933 23.4516 15.628C15.2419 21.167 6.97495 21.739 3.57232 21.7696C3.54125 21.7703 3.51037 21.7647 3.48148 21.7532C3.45259 21.7419 3.42627 21.7247 3.40408 21.703C3.38188 21.6812 3.36425 21.6552 3.35221 21.6266C3.34017 21.5979 3.33398 21.5672 3.33398 21.5362V1.9001C3.33398 1.86924 3.3401 1.83868 3.35198 1.8102C3.36387 1.78171 3.38128 1.75587 3.40322 1.73416C3.42516 1.71245 3.45118 1.69531 3.47979 1.68372C3.50839 1.67213 3.53901 1.66633 3.56987 1.66666Z" fill="#FF6250"/>
<path d="M10.3849 38.3332C14.2791 38.3332 17.4359 35.1763 17.4359 31.2822C17.4359 27.3881 14.2791 24.2313 10.3849 24.2313C6.4908 24.2313 3.33398 27.3881 3.33398 31.2822C3.33398 35.1763 6.4908 38.3332 10.3849 38.3332Z" fill="#FFDF90"/>
<path d="M24.7971 37.9147C22.8025 37.1533 21.7417 34.9582 22.4175 33.0149L27.7402 17.8253C28.4222 15.8819 30.5916 14.9249 32.5863 15.6864C34.5809 16.449 35.6418 18.6429 34.9659 20.5874L29.6432 35.7771C28.9612 37.7204 26.7918 38.6787 24.7971 37.9147Z" fill="#3366FF"/>
</svg>
